# xmcd CD database file
#
# Track frame offsets:
#	150
#	16624
#	31991
#	44119
#	56367
#	68824
#	86726
#	101984
#	113619
#	125930
#	142845
#	152846
#	161387
#	174509
#	183880
#	194640
#	204111
#
# Disc length: 2847 seconds
#
# Revision: 0
# Processed by: cddbd v1.4b42PL1 Copyright (c) Steve Scherf et al.
# Submitted via: CDex 1.40Beta8
#
DISCID=e40b1d11
DTITLE=Ike and Tina Turner - The Locomotion
DYEAR=1900
DGENRE=Blues
TTITLE0=Living For The City
TTITLE1=I Know (You Don`t Want Me No More)
TTITLE2=Sugar, Sugar
TTITLE3=Let`s Get It On
TTITLE4=Rock Me Baby
TTITLE5=River Deep, Mountain High
TTITLE6=Crazy ´Bout You Baby
TTITLE7=It`s Gonna Work Out Fine
TTITLE8=Stagger Lee And Billy
TTITLE9=I Smell Trouble
TTITLE10=Please Love Me
TTITLE11=My Babe
TTITLE12=Nutbush City Limits
TTITLE13=Ain`t Nobody Business
TTITLE14=You Got What You Wanted
TTITLE15=Too Hot To Hold
TTITLE16=Here`s Your Heart
EXTD=ID3G: 0
EXTT0=
EXTT1=
EXTT2=
EXTT3=
EXTT4=
EXTT5=
EXTT6=
EXTT7=
EXTT8=
EXTT9=
EXTT10=
EXTT11=
EXTT12=
EXTT13=
EXTT14=
EXTT15=
EXTT16=
PLAYORDER=
